<svg viewBox="0 0 800 200" xmlns="http://www.w3.org/2000/svg">
  <!-- Background (transparent) -->
  <rect width="800" height="200" fill="none"/>
  
  <!-- Nakamuve text in mono sans style -->
  <!-- N -->
  <path d="M80,65 L80,135" fill="none" stroke="black" stroke-width="12" stroke-linejoin="round"/>
  <path d="M80,135 L140,65" fill="none" stroke="black" stroke-width="12" stroke-linejoin="round"/>
  <path d="M140,65 L140,135" fill="none" stroke="black" stroke-width="12" stroke-linejoin="round"/>
  
  <!-- a - single-story lowercase -->
  <path d="M170,110 C170,95 180,85 195,85 C210,85 220,95 220,110 L220,135" fill="none" stroke="black" stroke-width="12" stroke-linejoin="round"/>
  <path d="M220,110 C220,125 210,135 195,135 C180,135 170,125 170,110" fill="none" stroke="black" stroke-width="12" stroke-linejoin="round"/>
  
  <!-- k -->
  <path d="M250,65 L250,135" fill="none" stroke="black" stroke-width="12" stroke-linejoin="round"/>
  <path d="M250,100 L290,65" fill="none" stroke="black" stroke-width="12" stroke-linejoin="round"/>
  <path d="M250,100 L290,135" fill="none" stroke="black" stroke-width="12" stroke-linejoin="round"/>
  
  <!-- a - single-story lowercase -->
  <path d="M320,110 C320,95 330,85 345,85 C360,85 370,95 370,110 L370,135" fill="none" stroke="black" stroke-width="12" stroke-linejoin="round"/>
  <path d="M370,110 C370,125 360,135 345,135 C330,135 320,125 320,110" fill="none" stroke="black" stroke-width="12" stroke-linejoin="round"/>
  
  <!-- m -->
  <path d="M400,85 L400,135" fill="none" stroke="black" stroke-width="12" stroke-linejoin="round"/>
  <path d="M400,135 Q412.5,85 425,85 Q437.5,85 450,135 Q462.5,85 475,85 Q487.5,85 500,135 L500,85" fill="none" stroke="black" stroke-width="12" stroke-linejoin="round"/>
  
  <!-- u -->
  <path d="M530,85 L530,110 C530,125 540,135 555,135 C570,135 580,125 580,110 L580,85" fill="none" stroke="black" stroke-width="12" stroke-linejoin="round"/>
  
  <!-- v -->
  <path d="M610,65 L640,135" fill="none" stroke="black" stroke-width="12" stroke-linejoin="round"/>
  <path d="M640,135 L670,65" fill="none" stroke="black" stroke-width="12" stroke-linejoin="round"/>
  
  <!-- e -->
  <path d="M700,110 L730,110" fill="none" stroke="black" stroke-width="12" stroke-linejoin="round"/>
  <path d="M730,110 C730,135 720,135 715,135 C700,135 700,125 700,110 C700,95 700,85 715,85 L730,85" fill="none" stroke="black" stroke-width="12" stroke-linejoin="round"/>
  
  <!-- Orange dots -->
  <circle cx="80" cy="65" r="8" fill="#FF6600"/>
  <circle cx="80" cy="135" r="8" fill="#FF6600"/>
  <circle cx="140" cy="65" r="8" fill="#FF6600"/>
  <circle cx="140" cy="135" r="8" fill="#FF6600"/>
  
  <!-- a orange dots -->
  <circle cx="170" cy="110" r="8" fill="#FF6600"/>
  <circle cx="195" cy="85" r="8" fill="#FF6600"/>
  <circle cx="220" cy="135" r="8" fill="#FF6600"/>
  
  <!-- k orange dots -->
  <circle cx="250" cy="65" r="8" fill="#FF6600"/>
  <circle cx="250" cy="100" r="8" fill="#FF6600"/>
  <circle cx="290" cy="65" r="8" fill="#FF6600"/>
  <circle cx="290" cy="135" r="8" fill="#FF6600"/>
  
  <!-- a orange dots -->
  <circle cx="320" cy="110" r="8" fill="#FF6600"/>
  <circle cx="345" cy="85" r="8" fill="#FF6600"/>
  <circle cx="370" cy="135" r="8" fill="#FF6600"/>
  
  <!-- m orange dots -->
  <circle cx="400" cy="85" r="8" fill="#FF6600"/>
  <circle cx="450" cy="135" r="8" fill="#FF6600"/>
  <circle cx="500" cy="135" r="8" fill="#FF6600"/>
  <circle cx="500" cy="85" r="8" fill="#FF6600"/>
  
  <!-- u orange dots -->
  <circle cx="530" cy="85" r="8" fill="#FF6600"/>
  <circle cx="555" cy="135" r="8" fill="#FF6600"/>
  <circle cx="580" cy="85" r="8" fill="#FF6600"/>
  
  <!-- v orange dots -->
  <circle cx="610" cy="65" r="8" fill="#FF6600"/>
  <circle cx="640" cy="135" r="8" fill="#FF6600"/>
  <circle cx="670" cy="65" r="8" fill="#FF6600"/>
  
  <!-- e orange dots -->
  <circle cx="700" cy="110" r="8" fill="#FF6600"/>
  <circle cx="730" cy="85" r="8" fill="#FF6600"/>
  <circle cx="730" cy="110" r="8" fill="#FF6600"/>
  <circle cx="715" cy="135" r="8" fill="#FF6600"/>
</svg>
